<svg width="190" height="190" viewBox="0 0 190 190" fill="none" xmlns="http://www.w3.org/2000/svg">
<path fill-rule="evenodd" clip-rule="evenodd" d="M94.5415 0C42.4146 0 0 42.421 0 94.5422C0 146.682 42.4146 189.09 94.5415 189.09C146.675 189.091 189.083 146.682 189.083 94.5422C189.083 42.4214 146.675 0 94.5415 0ZM97.9457 183.156L97.9589 98.2624L131.743 132.069C139.997 140.326 153.378 140.326 161.635 132.069C169.886 123.812 169.892 110.437 161.635 102.187L154.38 94.9252L161.635 87.676C169.892 79.4064 169.892 66.0379 161.635 57.7739C153.378 49.5236 139.997 49.5232 131.743 57.7739L57.346 57.6213C49.0923 49.3774 35.7116 49.3769 27.4541 57.6208C19.2034 65.8848 19.197 79.2654 27.4541 87.5161L34.7093 94.7782L27.4541 102.027C19.197 110.284 19.197 123.678 27.4541 131.928C35.7116 140.173 49.0923 140.173 57.346 131.928L91.1373 98.2432L91.1282 183.156C43.7994 181.35 5.84504 142.304 5.84504 94.5422C5.84504 45.6374 45.637 5.84513 94.5415 5.84513C143.452 5.84513 183.245 45.6374 183.245 94.5422C183.245 142.311 145.284 181.356 97.9457 183.156Z" fill="#A3BD3C"/>
<path fill-rule="evenodd" clip-rule="evenodd" d="M94.4712 94.8485L131.692 57.6465C139.943 49.4023 139.943 36.0217 131.692 27.7577C123.438 19.5074 110.06 19.507 101.8 27.7577L94.5415 35.0197L87.2897 27.7577C79.0356 19.5074 65.6516 19.507 57.3974 27.7577C49.1403 36.0217 49.1403 49.4023 57.3974 57.6462L94.4712 94.8485Z" fill="#E7536D"/>
</svg>
