<svg width="212" height="50" viewBox="0 0 212 50" fill="none" xmlns="http://www.w3.org/2000/svg">
<path fill-rule="evenodd" clip-rule="evenodd" d="M63.4211 22.3678H61.8441V6.49486H59.4868V22.3678H57.9102V5.16113H63.4211V22.3678Z" fill="white"/>
<path fill-rule="evenodd" clip-rule="evenodd" d="M65.8457 5.16113H70.0149V6.49486H67.4203V12.7644H69.8978V14.0957H67.4203V21.0333H70.0149V22.3678H65.8457V5.16113Z" fill="white"/>
<path fill-rule="evenodd" clip-rule="evenodd" d="M72.02 5.16113H74.5232C76.5489 5.16113 77.139 5.82001 77.139 7.78159L77.1392 12.0001C77.1392 13.9531 76.5487 14.6166 74.523 14.6166L73.5904 14.6168V22.3678H72.02V5.16113ZM74.3565 13.288C75.0701 13.288 75.5686 13.0949 75.5686 12.2162L75.5688 7.56242C75.5688 6.68757 75.0699 6.49465 74.3565 6.49465L73.5904 6.49486V13.288H74.3565Z" fill="white"/>
<path fill-rule="evenodd" clip-rule="evenodd" d="M79 5.16113H81.9315C83.4336 5.16113 84.3656 5.41746 84.3656 7.1395L84.3658 11.4987C84.3658 12.8324 83.8621 13.3102 82.645 13.3588V13.4055C83.7431 13.4528 84.4352 13.8116 84.4352 15.0014V20.3885C84.4352 22.1051 83.5025 22.3678 81.9315 22.3678H79V5.16113ZM81.621 12.7644C82.3613 12.7644 82.7897 12.5478 82.7897 11.5237V7.65972C82.7897 6.66228 82.2648 6.49465 81.4555 6.49465L80.5766 6.49486V12.7644H81.621ZM81.5288 21.0333C82.3339 21.0333 82.8604 20.8658 82.8604 19.8648V15.1467C82.8604 14.3119 82.3612 14.0957 81.6208 14.0957H80.5766V21.0333H81.5288Z" fill="white"/>
<path fill-rule="evenodd" clip-rule="evenodd" d="M91.0607 17.604H88.2939L87.6567 22.3678H86.0801L88.6052 5.16113H90.7493L93.2785 22.3678H91.7044L91.0607 17.604ZM89.7031 6.35132H89.6554L88.4619 16.2632H90.894L89.7031 6.35132Z" fill="white"/>
<path fill-rule="evenodd" clip-rule="evenodd" d="M98.7111 22.3678V14.0957H97.6607C96.9246 14.0957 96.4216 14.3117 96.4216 15.1467V22.3678H94.8457V15.0016C94.8457 13.8118 95.5157 13.4762 96.6321 13.4055V13.3589C95.4188 13.288 94.9152 12.8324 94.9152 11.4987L94.9153 7.1395C94.9153 5.41746 95.8485 5.16113 97.3492 5.16113H100.281V22.3678H98.7111ZM98.7111 6.49486H97.8254C97.0167 6.49486 96.491 6.66225 96.491 7.65951L96.4912 11.5237C96.4912 12.548 96.9246 12.7642 97.6605 12.7642L98.7111 12.7644V6.49486Z" fill="white"/>
<path fill-rule="evenodd" clip-rule="evenodd" d="M186.66 22.2506V11.2716L180.005 22.2506H177.024V5.14087H180.367V16.0985L187.02 5.14087H190.001V22.2506H186.66Z" fill="white"/>
<path fill-rule="evenodd" clip-rule="evenodd" d="M115.949 22.2507L111.55 14.4668L109.344 17.1087V22.2507H106V5.14185H109.344V12.5903L115.374 5.14185H119.434L113.762 11.9406L119.84 22.2507H115.949Z" fill="white"/>
<path fill-rule="evenodd" clip-rule="evenodd" d="M133.909 22.2507L132.899 19.223H126.822L125.785 22.2507H122.302L128.527 5.14185H131.142L137.392 22.2507H133.909ZM129.918 10.1881L127.757 16.4108H132.01L129.918 10.1881Z" fill="white"/>
<path fill-rule="evenodd" clip-rule="evenodd" d="M147.831 5.14185C151.127 5.14185 153.48 7.35304 153.48 10.4765C153.48 13.5994 151.147 15.8099 147.831 15.8099H144.541V22.2507H141.199V5.14185H147.831ZM147.665 12.8099C149.155 12.8099 150.139 11.8931 150.139 10.4765C150.139 9.05843 149.155 8.12265 147.665 8.12265H144.541V12.8099H147.665Z" fill="white"/>
<path fill-rule="evenodd" clip-rule="evenodd" d="M205.559 20.5184C204.356 21.7685 202.798 22.3966 200.945 22.3966C199.094 22.3966 197.51 21.7462 196.311 20.5183C194.507 18.6724 194.627 15.8338 194.627 13.9392V12.9973C194.627 9.5865 194.988 8.21696 196.311 6.87103C197.51 5.64948 199.094 5 200.945 5C202.772 5 204.355 5.64948 205.559 6.87103C206.762 8.09684 207.264 9.73301 207.264 12.494L207.264 13.6979C207.264 16.1451 207.384 18.621 205.559 20.5184ZM203.085 8.89037C202.556 8.28872 201.814 7.97638 200.945 7.97638C200.083 7.97656 199.313 8.28872 198.785 8.89037C198.016 9.73315 197.969 11.3395 197.969 13.4565C197.969 15.5449 197.87 17.5896 198.785 18.4999C199.361 19.0794 200.082 19.4148 200.945 19.4148C201.814 19.4149 202.556 19.1015 203.085 18.4999C203.78 17.7085 203.927 16.8671 203.927 13.3839C203.927 10.5719 203.759 9.63323 203.085 8.89037Z" fill="white"/>
<path fill-rule="evenodd" clip-rule="evenodd" d="M169.505 16.4041V5.16528H158.98L158.718 12.2734C158.619 15.5413 157.443 16.4041 155.905 16.4041H155.355V19.387V23.7993H158.573V19.3861L168.486 19.387V23.7993H171.708V16.4041H169.505ZM165.952 16.4041H161.376C161.8 15.3652 162.04 14.0473 162.081 12.4203L162.276 8.14519H166.167V16.4041H165.952Z" fill="white"/>
<g clip-path="url(#clip0_483_953)">
<path fill-rule="evenodd" clip-rule="evenodd" d="M67.8273 45.1266L63.4278 37.3418L61.2214 39.9854V45.1266H57.8779V28.0168H61.2214V35.4652L67.251 28.0168H71.3111L65.6397 34.8185L71.7177 45.1266H67.8273Z" fill="white"/>
<path fill-rule="evenodd" clip-rule="evenodd" d="M85.4158 45.1266V30.997H81.5242L81.3306 38.1599C81.2105 42.9655 79.3848 45.1264 76.0681 45.1264L74.6045 45.1266V42.1436H75.1539C76.6915 42.1436 77.8688 41.2807 77.9676 38.0128L78.2295 28.0168H88.7538V45.1266H85.4158Z" fill="white"/>
<path fill-rule="evenodd" clip-rule="evenodd" d="M103.611 45.1266V34.1477L96.9573 45.1266H93.9751V28.0168H97.317V38.9743L103.97 28.0168H106.953V45.1266H103.611Z" fill="white"/>
<path fill-rule="evenodd" clip-rule="evenodd" d="M121.47 45.1266V37.9652H115.68V45.1266H112.338V28.0168H115.68V35.0102H121.47V28.0168H124.808V45.1266H121.47Z" fill="white"/>
<path fill-rule="evenodd" clip-rule="evenodd" d="M139.391 45.1266V34.1477L132.737 45.1266H129.755V28.0168H133.099V38.9743L139.752 28.0168H142.732V45.1266H139.391Z" fill="white"/>
<path fill-rule="evenodd" clip-rule="evenodd" d="M157.483 45.1266L153.085 37.3418L150.876 39.9854V45.1266H147.534V28.0168H150.876V35.4652L156.908 28.0168H160.966L155.297 34.8185L161.374 45.1266H157.483Z" fill="white"/>
<path fill-rule="evenodd" clip-rule="evenodd" d="M174.175 45.1266L173.165 42.0969H167.089L166.053 45.1266H162.569L168.794 28.0168H171.409L177.66 45.1266H174.175ZM170.184 33.0657L168.024 39.2884H172.278L170.184 33.0657Z" fill="white"/>
</g>
<circle cx="25" cy="26" r="23" fill="#95BB30"/>
<path fill-rule="evenodd" clip-rule="evenodd" d="M25.8818 49L25.8853 26.976L34.6456 35.7465C36.7858 37.8887 40.2556 37.8886 42.3966 35.7464C44.5361 33.6043 44.5377 30.1343 42.3966 27.9941L40.5154 26.1102L42.3966 24.2295C44.5377 22.0841 44.5377 18.6159 42.3966 16.472C40.2556 14.3316 36.7858 14.3315 34.6456 16.472L15.3543 16.4324C13.2141 14.2936 9.74445 14.2935 7.60326 16.4322C5.46384 18.5762 5.46218 22.0475 7.60326 24.188L9.48454 26.072L7.60326 27.9526C5.46218 30.0947 5.46218 33.5694 7.60326 35.7099C9.74445 37.8488 13.2141 37.8488 15.3543 35.7099L24.1164 26.971L24.114 49C11.8416 48.5314 2 38.4017 2 26.0108C2 13.3234 12.3181 3 24.9991 3C37.6818 3 48 13.3234 48 26.0108C48 38.4034 38.1566 48.5331 25.8818 49Z" fill="white"/>
<path fill-rule="evenodd" clip-rule="evenodd" d="M24.9819 26.0802L34.4292 16.2432C36.5236 14.0632 36.5235 10.525 34.4292 8.33984C32.3342 6.15825 28.9387 6.15815 26.8421 8.33984L24.9997 10.2601L23.1591 8.33984C21.064 6.15825 17.6669 6.15815 15.5719 8.33984C13.476 10.525 13.476 14.0632 15.5719 16.2431L24.9819 26.0802Z" fill="#E7536D"/>
<defs>
<clipPath id="clip0_483_953">
<rect width="119.782" height="17.1097" fill="white" transform="translate(57.8779 28.0168)"/>
</clipPath>
</defs>
</svg>
